<svg data-v-423bf9ae="" xmlns="http://www.w3.org/2000/svg" viewBox="0 0 645.301719850224 163" class="iconAbove"><!----><!----><!----><g data-v-423bf9ae="" id="ea44a371-31e2-430d-b147-694fd2f850a2" fill="black" transform="matrix(5.577908720429519,0,0,5.577908720429519,-6.247272071732368,102.64702819157621)"><path d="M5.11 5.03L5.11 5.03C6.99 5.03 6.99 2.23 5.11 2.23L3.46 2.23C2.84 2.23 2.84 3.16 3.46 3.16L5.11 3.16C5.75 3.16 5.75 4.10 5.11 4.10C4.75 4.10 4.12 3.99 4.12 4.56C4.12 5.12 4.75 5.03 5.11 5.03ZM2.06 10.16L2.06 10.16L2.06 1.29L5.28 1.29C8.29 1.29 8.29 5.96 5.28 5.96L3.46 5.96C3.21 5.96 2.98 6.17 2.98 6.43L2.98 10.16C2.98 10.78 3.93 10.78 3.93 10.16L3.93 6.90L5.28 6.90C9.51 6.90 9.52 0.36 5.28 0.36L1.58 0.36C1.33 0.36 1.12 0.56 1.12 0.84L1.12 10.16C1.12 10.78 2.06 10.78 2.06 10.16ZM12.08 7.84L12.08 7.84L13.44 7.84C13.71 7.84 13.93 7.63 13.93 7.36C13.93 7.29 13.92 7.24 13.89 7.18L13.20 5.50C13.10 5.28 12.84 5.17 12.59 5.26C12.36 5.35 12.25 5.63 12.33 5.87L12.75 6.90L12.08 6.90C11.83 6.90 11.62 7.10 11.62 7.36C11.62 7.63 11.83 7.84 12.08 7.84ZM11.40 10.26L11.40 10.26L11.63 9.72L13.90 9.72L14.13 10.26C14.22 10.51 14.50 10.61 14.74 10.53C14.98 10.42 15.08 10.15 14.99 9.91L14.66 9.10C14.60 8.92 14.42 8.76 14.21 8.76L11.31 8.76L11.31 8.76C11.14 8.76 10.96 8.89 10.88 9.06L10.54 9.91C10.44 10.15 10.56 10.42 10.79 10.53C11.05 10.61 11.31 10.50 11.40 10.26ZM9.39 10.26L9.39 10.26L12.77 1.76L16.14 10.26C16.24 10.50 16.52 10.61 16.76 10.53C17.00 10.42 17.11 10.15 17.01 9.91L13.20 0.36C13.16 0.25 13.08 0.14 12.94 0.10C12.71 0 12.43 0.11 12.33 0.36L8.51 9.91C8.43 10.15 8.55 10.42 8.78 10.53C9.02 10.61 9.28 10.50 9.39 10.26ZM21.15 7.84L21.15 7.84L22.51 7.84C22.78 7.84 23.00 7.63 23.00 7.36C23.00 7.29 22.99 7.24 22.96 7.18L22.27 5.50C22.18 5.28 21.91 5.17 21.66 5.26C21.43 5.35 21.32 5.63 21.41 5.87L21.83 6.90L21.15 6.90C20.90 6.90 20.69 7.10 20.69 7.36C20.69 7.63 20.90 7.84 21.15 7.84ZM20.47 10.26L20.47 10.26L20.71 9.72L22.97 9.72L23.20 10.26C23.30 10.51 23.58 10.61 23.81 10.53C24.05 10.42 24.15 10.15 24.07 9.91L23.73 9.10C23.67 8.92 23.49 8.76 23.28 8.76L20.38 8.76L20.38 8.76C20.22 8.76 20.03 8.89 19.95 9.06L19.61 9.91C19.52 10.15 19.63 10.42 19.87 10.53C20.12 10.61 20.38 10.50 20.47 10.26ZM18.47 10.26L18.47 10.26L21.84 1.76L25.21 10.26C25.31 10.50 25.59 10.61 25.83 10.53C26.07 10.42 26.18 10.15 26.08 9.91L22.27 0.36C22.23 0.25 22.15 0.14 22.01 0.10C21.78 0 21.50 0.11 21.41 0.36L17.58 9.91C17.50 10.15 17.63 10.42 17.85 10.53C18.09 10.61 18.35 10.50 18.47 10.26ZM30.77 6.09C31.39 6.09 31.39 5.15 30.77 5.15L27.34 5.15C26.73 5.15 26.73 6.09 27.34 6.09ZM34.01 10.18L34.01 10.18L34.01 0.81C34.01 0.56 33.80 0.35 33.53 0.35C33.28 0.35 33.07 0.56 33.07 0.81L33.07 10.18C33.07 10.43 33.28 10.64 33.53 10.64C33.80 10.64 34.01 10.43 34.01 10.18ZM37.94 9.90L37.94 9.90L35.78 6.83C35.53 6.45 34.94 6.64 34.94 7.11L34.94 10.18C34.94 10.43 35.15 10.64 35.41 10.64C35.67 10.64 35.87 10.43 35.87 10.18L35.87 8.58L37.17 10.44C37.32 10.65 37.60 10.70 37.81 10.56C38.04 10.40 38.08 10.12 37.94 9.90ZM37.17 0.55L37.17 0.55L35.87 2.41L35.87 0.81C35.87 0.56 35.67 0.35 35.41 0.35C35.15 0.35 34.94 0.56 34.94 0.81L34.94 3.86C34.94 4.03 35.00 4.17 35.14 4.27C35.35 4.42 35.64 4.37 35.78 4.16L37.94 1.08C38.08 0.87 38.04 0.59 37.81 0.43C37.60 0.28 37.32 0.34 37.17 0.55ZM39.45 0.55L39.45 0.55L36.19 5.22C36.08 5.39 36.08 5.61 36.19 5.77L39.45 10.44C39.61 10.65 39.89 10.70 40.10 10.56C40.32 10.40 40.36 10.12 40.22 9.90L37.14 5.49L40.22 1.08C40.36 0.87 40.32 0.59 40.10 0.43C39.89 0.28 39.61 0.34 39.45 0.55ZM51.77 3.88L51.77 3.88C51.42 2.77 50.72 1.83 49.81 1.16C48.90 0.52 47.81 0.14 46.61 0.14C39.51 0.14 39.51 10.82 46.61 10.82C47.81 10.82 48.90 10.43 49.81 9.79C50.72 9.13 51.42 8.18 51.77 7.08C51.84 6.83 51.72 6.55 51.46 6.48C51.21 6.41 50.93 6.54 50.86 6.79C50.57 7.70 50.01 8.47 49.24 9.02C48.51 9.55 47.60 9.86 46.61 9.86C40.77 9.86 40.77 1.09 46.61 1.09C47.60 1.09 48.51 1.41 49.24 1.93C50.01 2.49 50.57 3.26 50.86 4.16C50.93 4.41 51.21 4.55 51.46 4.47C51.72 4.40 51.84 4.13 51.77 3.88ZM43.72 7.17L43.72 7.17C44.02 7.69 44.44 8.12 44.94 8.43C45.44 8.71 46.02 8.88 46.61 8.88C47.54 8.88 48.38 8.50 49 7.87C49.59 7.25 49.97 6.41 49.97 5.47C49.97 4.54 49.59 3.70 49 3.08C48.38 2.46 47.54 2.09 46.61 2.09C46.02 2.09 45.44 2.24 44.94 2.53C44.44 2.83 44.02 3.26 43.72 3.78C43.58 4.02 43.67 4.31 43.89 4.44C44.13 4.56 44.41 4.48 44.53 4.24C44.76 3.88 45.07 3.57 45.43 3.36C45.78 3.15 46.17 3.04 46.61 3.04C47.28 3.04 47.88 3.32 48.30 3.75C48.75 4.19 49.01 4.80 49.01 5.47C49.01 6.16 48.75 6.78 48.30 7.21C47.88 7.66 47.28 7.92 46.61 7.92C46.17 7.92 45.77 7.80 45.43 7.59C45.07 7.39 44.76 7.07 44.53 6.71C44.41 6.47 44.13 6.40 43.89 6.52C43.67 6.66 43.58 6.93 43.72 7.17ZM58.98 2.23L58.98 2.23L56.01 2.23C55.75 2.23 55.54 2.42 55.54 2.69L55.54 4.56C55.54 4.82 55.75 5.03 56.01 5.03L58.11 5.03C58.37 5.03 58.58 4.82 58.58 4.56C58.58 4.30 58.37 4.09 58.11 4.09L56.48 4.09L56.48 3.15L58.98 3.15C59.25 3.15 59.46 2.94 59.46 2.69C59.46 2.42 59.25 2.23 58.98 2.23ZM58.11 5.96L58.11 5.96L56.01 5.96C55.75 5.96 55.54 6.17 55.54 6.43L55.54 10.18C55.54 10.43 55.75 10.64 56.01 10.64C56.27 10.64 56.48 10.43 56.48 10.18L56.48 6.90L58.11 6.90C58.37 6.90 58.58 6.69 58.58 6.43C58.58 6.17 58.37 5.96 58.11 5.96ZM54.60 10.18L54.60 10.18L54.60 1.29L58.98 1.29C59.25 1.29 59.46 1.08 59.46 0.81C59.46 0.56 59.25 0.35 58.98 0.35L54.14 0.35C53.87 0.35 53.68 0.56 53.68 0.81L53.68 10.18C53.68 10.43 53.87 10.64 54.14 10.64C54.39 10.64 54.60 10.43 54.60 10.18ZM63.92 10.18L63.92 10.18L63.92 0.81C63.92 0.56 63.71 0.35 63.46 0.35C63.20 0.35 62.99 0.56 62.99 0.81L62.99 10.18C62.99 10.43 63.20 10.64 63.46 10.64C63.71 10.64 63.92 10.43 63.92 10.18ZM62.05 10.18L62.05 10.18L62.05 0.81C62.05 0.56 61.84 0.35 61.59 0.35C61.32 0.35 61.11 0.56 61.11 0.81L61.11 10.18C61.11 10.43 61.32 10.64 61.59 10.64C61.84 10.64 62.05 10.43 62.05 10.18ZM72.86 7.84L72.86 7.84L74.21 7.84C74.48 7.84 74.70 7.63 74.70 7.36C74.70 7.29 74.69 7.24 74.66 7.18L73.98 5.50C73.88 5.28 73.61 5.17 73.36 5.26C73.14 5.35 73.02 5.63 73.11 5.87L73.53 6.90L72.86 6.90C72.60 6.90 72.39 7.10 72.39 7.36C72.39 7.63 72.60 7.84 72.86 7.84ZM72.17 10.26L72.17 10.26L72.41 9.72L74.68 9.72L74.90 10.26C75.00 10.51 75.28 10.61 75.52 10.53C75.75 10.42 75.85 10.15 75.77 9.91L75.43 9.10C75.38 8.92 75.19 8.76 74.98 8.76L72.09 8.76L72.09 8.76C71.92 8.76 71.74 8.89 71.65 9.06L71.32 9.91C71.22 10.15 71.33 10.42 71.57 10.53C71.82 10.61 72.09 10.50 72.17 10.26ZM70.17 10.26L70.17 10.26L73.54 1.76L76.92 10.26C77.01 10.50 77.29 10.61 77.53 10.53C77.77 10.42 77.88 10.15 77.78 9.91L73.98 0.36C73.93 0.25 73.85 0.14 73.71 0.10C73.49 0 73.21 0.11 73.11 0.36L69.29 9.91C69.20 10.15 69.33 10.42 69.55 10.53C69.79 10.61 70.06 10.50 70.17 10.26ZM82.04 10.18L82.04 10.18L82.04 0.81C82.04 0.56 81.83 0.35 81.58 0.35C81.31 0.35 81.10 0.56 81.10 0.81L81.10 10.18C81.10 10.43 81.31 10.64 81.58 10.64C81.83 10.64 82.04 10.43 82.04 10.18ZM80.16 10.18L80.16 10.18L80.16 0.81C80.16 0.56 79.95 0.35 79.70 0.35C79.44 0.35 79.23 0.56 79.23 0.81L79.23 10.18C79.23 10.43 79.44 10.64 79.70 10.64C79.95 10.64 80.16 10.43 80.16 10.18ZM87.56 8.78L87.56 8.78C89.47 8.78 90.75 7.34 90.75 5.49C90.75 3.65 89.47 2.21 87.56 2.21L86.63 2.21C86.38 2.21 86.17 2.42 86.17 2.69L86.17 6.43C86.17 6.69 86.38 6.90 86.63 6.90C86.90 6.90 87.09 6.69 87.09 6.43L87.09 3.15L87.56 3.15C88.94 3.15 89.82 4.17 89.82 5.49C89.82 6.82 88.94 7.84 87.56 7.84L86.63 7.84C86.38 7.84 86.17 8.05 86.17 8.30C86.17 8.57 86.38 8.78 86.63 8.78ZM85.23 10.18L85.23 10.18L85.23 1.29L87.56 1.29C90.06 1.29 91.77 3.05 91.77 5.49C91.77 7.94 90.06 9.70 87.56 9.70L86.62 9.70C86.37 9.70 86.16 9.91 86.16 10.18C86.16 10.43 86.37 10.64 86.62 10.64L87.56 10.64C90.59 10.64 92.71 8.46 92.71 5.49C92.71 2.53 90.59 0.35 87.56 0.35L84.76 0.35C84.50 0.35 84.29 0.56 84.29 0.81L84.29 10.18C84.29 10.43 84.50 10.64 84.76 10.64C85.02 10.64 85.23 10.43 85.23 10.18ZM104.73 3.88L104.73 3.88C104.38 2.77 103.68 1.83 102.77 1.16C101.86 0.52 100.77 0.14 99.57 0.14C92.47 0.14 92.47 10.82 99.57 10.82C100.77 10.82 101.86 10.43 102.77 9.79C103.68 9.13 104.38 8.18 104.73 7.08C104.80 6.83 104.68 6.55 104.43 6.48C104.17 6.41 103.89 6.54 103.82 6.79C103.53 7.70 102.97 8.47 102.20 9.02C101.47 9.55 100.56 9.86 99.57 9.86C93.73 9.86 93.73 1.09 99.57 1.09C100.56 1.09 101.47 1.41 102.20 1.93C102.97 2.49 103.53 3.26 103.82 4.16C103.89 4.41 104.17 4.55 104.43 4.47C104.68 4.40 104.80 4.13 104.73 3.88ZM96.68 7.17L96.68 7.17C96.98 7.69 97.40 8.12 97.90 8.43C98.41 8.71 98.98 8.88 99.57 8.88C100.51 8.88 101.35 8.50 101.96 7.87C102.55 7.25 102.93 6.41 102.93 5.47C102.93 4.54 102.55 3.70 101.96 3.08C101.35 2.46 100.51 2.09 99.57 2.09C98.98 2.09 98.41 2.24 97.90 2.53C97.40 2.83 96.98 3.26 96.68 3.78C96.54 4.02 96.63 4.31 96.85 4.44C97.09 4.56 97.37 4.48 97.50 4.24C97.72 3.88 98.03 3.57 98.39 3.36C98.74 3.15 99.13 3.04 99.57 3.04C100.24 3.04 100.84 3.32 101.26 3.75C101.71 4.19 101.98 4.80 101.98 5.47C101.98 6.16 101.71 6.78 101.26 7.21C100.84 7.66 100.24 7.92 99.57 7.92C99.13 7.92 98.73 7.80 98.39 7.59C98.03 7.39 97.72 7.07 97.50 6.71C97.37 6.47 97.09 6.40 96.85 6.52C96.63 6.66 96.54 6.93 96.68 7.17ZM116.79 3.88L116.79 3.88C116.44 2.77 115.74 1.83 114.83 1.16C113.92 0.52 112.83 0.14 111.62 0.14C104.52 0.14 104.52 10.82 111.62 10.82C112.83 10.82 113.92 10.43 114.83 9.79C115.74 9.13 116.44 8.18 116.79 7.08C116.86 6.83 116.73 6.55 116.48 6.48C116.23 6.41 115.95 6.54 115.88 6.79C115.58 7.70 115.02 8.47 114.25 9.02C113.53 9.55 112.62 9.86 111.62 9.86C105.78 9.86 105.78 1.09 111.62 1.09C112.62 1.09 113.53 1.41 114.25 1.93C115.02 2.49 115.58 3.26 115.88 4.16C115.95 4.41 116.23 4.55 116.48 4.47C116.73 4.40 116.86 4.13 116.79 3.88ZM108.74 7.17L108.74 7.17C109.03 7.69 109.45 8.12 109.96 8.43C110.46 8.71 111.03 8.88 111.62 8.88C112.56 8.88 113.40 8.50 114.02 7.87C114.60 7.25 114.98 6.41 114.98 5.47C114.98 4.54 114.60 3.70 114.02 3.08C113.40 2.46 112.56 2.09 111.62 2.09C111.03 2.09 110.46 2.24 109.96 2.53C109.45 2.83 109.03 3.26 108.74 3.78C108.60 4.02 108.68 4.31 108.91 4.44C109.14 4.56 109.42 4.48 109.55 4.24C109.77 3.88 110.08 3.57 110.45 3.36C110.80 3.15 111.19 3.04 111.62 3.04C112.29 3.04 112.90 3.32 113.32 3.75C113.76 4.19 114.03 4.80 114.03 5.47C114.03 6.16 113.76 6.78 113.32 7.21C112.90 7.66 112.29 7.92 111.62 7.92C111.19 7.92 110.78 7.80 110.45 7.59C110.08 7.39 109.77 7.07 109.55 6.71C109.42 6.47 109.14 6.40 108.91 6.52C108.68 6.66 108.60 6.93 108.74 7.17Z"></path></g><!----><g data-v-423bf9ae="" id="94da5d52-90d9-40d1-a4a2-533942ab9684" transform="matrix(1.25,0,0,1.25,260.5006132462921,-18.75)" stroke="none" fill="black"><path d="M33 67.685l12 4.849v-3.105l-6.935-2.878L45 63.583v-3.082L33 65.35zM45.892 73.713l2.56.837 7.003-17.562-2.56-.884zM57 63.583l6.934 2.968L57 69.429v3.105l12-4.849V65.35l-12-4.849zM19.766 35h-2.493l-.657 4h-1.768l.656-4h-2.516l-.657 4H10v2h2.038l-.34 3H10v2h1.38l-.656 4h2.493l.657-4h1.79l-.657 4H17.5l.68-4H20v-2h-1.525l.317-3H21v-2h-1.869l.635-4zm-3.785 9h-1.768l.295-3h1.791l-.318 3z"></path><path d="M96.223 15H3.777A3.777 3.777 0 0 0 0 18.777v64.445A3.777 3.777 0 0 0 3.777 87h92.445a3.777 3.777 0 0 0 3.777-3.777V18.777A3.775 3.775 0 0 0 96.223 15zm-73.175 4.544a2.48 2.48 0 1 1-.002 4.96 2.48 2.48 0 0 1 .002-4.96zm-7.554 0a2.48 2.48 0 1 1 0 4.958 2.48 2.48 0 0 1 0-4.958zm-7.554 0a2.48 2.48 0 1 1-.002 4.96 2.48 2.48 0 0 1 .002-4.96zM94 76.059A3.942 3.942 0 0 1 90.058 80H7.942A3.942 3.942 0 0 1 4 76.059V32.941A3.942 3.942 0 0 1 7.942 29h82.115A3.942 3.942 0 0 1 94 32.941v43.118z"></path><path d="M75.367 36.812c-.488.529-.367 1.261-.367 2.16v3.391c0 .278-.404.509-.484.694-.08.186-.473.327-.599.427a1.15 1.15 0 0 1-.434.208 3.745 3.745 0 0 1-.483.058v2.182s.342.02.499.06c.159.04.372.112.499.218.125.106.463.255.542.447.078.191.46.439.46.743v3.311c0 .899-.121 1.29.367 1.818.49.529.784.471 1.617.471H80v-2h-1.377c-.383 0-.487.156-.599-.094-.113-.252-.024-.242-.024-.531v-3.233c0-.437-.24-.796-.371-1.081s-.35-.512-.541-.685c-.191-.171-.328-.297-.54-.376-.212-.079-.548-.125-.548-.139v-.039c0-.014.256-.066.465-.159.214-.093.414-.225.605-.397.192-.171.501-.393.632-.665.132-.27.298-.597.298-.98v-3.312c0-.29-.089-.621.024-.872.112-.251.216-.437.599-.437H80v-2h-3.016c-.833 0-1.127.283-1.617.812zM89.083 43.484c-.126-.1-.519-.241-.599-.427-.08-.185-.484-.416-.484-.694v-3.391c0-.899.121-1.631-.367-2.161-.49-.528-.784-.811-1.617-.811H83v2h1.377c.383 0 .487.186.599.437.113.251.024.582.024.872v3.312c0 .384.166.71.298.981.131.271.439.493.632.665.191.172.392.304.605.397.209.092.465.145.465.158v.039c0 .014-.336.06-.548.139-.212.08-.349.205-.54.377s-.41.4-.541.685-.371.643-.371 1.081v3.232c0 .289.089.279-.024.531-.112.25-.216.094-.599.094H83v2h3.016c.833 0 1.127.058 1.617-.471.488-.528.367-.919.367-1.818V47.4c0-.305.382-.553.46-.744.079-.191.417-.34.542-.446.127-.106.34-.179.499-.218.157-.04.499-.06.499-.06V43.75s-.324-.019-.483-.059a1.133 1.133 0 0 1-.434-.207z"></path></g><!----></svg>