<svg  xmlns="http://www.w3.org/2000/svg"  class="iconAbove" height='100px' width='100px'><g stroke="none" fill="#25BBA8"><path d="M33 67.685l12 4.849v-3.105l-6.935-2.878L45 63.583v-3.082L33 65.35zM45.892 73.713l2.56.837 7.003-17.562-2.56-.884zM57 63.583l6.934 2.968L57 69.429v3.105l12-4.849V65.35l-12-4.849zM19.766 35h-2.493l-.657 4h-1.768l.656-4h-2.516l-.657 4H10v2h2.038l-.34 3H10v2h1.38l-.656 4h2.493l.657-4h1.79l-.657 4H17.5l.68-4H20v-2h-1.525l.317-3H21v-2h-1.869l.635-4zm-3.785 9h-1.768l.295-3h1.791l-.318 3z"></path><path d="M96.223 15H3.777A3.777 3.777 0 0 0 0 18.777v64.445A3.777 3.777 0 0 0 3.777 87h92.445a3.777 3.777 0 0 0 3.777-3.777V18.777A3.775 3.775 0 0 0 96.223 15zm-73.175 4.544a2.48 2.48 0 1 1-.002 4.96 2.48 2.48 0 0 1 .002-4.96zm-7.554 0a2.48 2.48 0 1 1 0 4.958 2.48 2.48 0 0 1 0-4.958zm-7.554 0a2.48 2.48 0 1 1-.002 4.96 2.48 2.48 0 0 1 .002-4.96zM94 76.059A3.942 3.942 0 0 1 90.058 80H7.942A3.942 3.942 0 0 1 4 76.059V32.941A3.942 3.942 0 0 1 7.942 29h82.115A3.942 3.942 0 0 1 94 32.941v43.118z"></path><path d="M75.367 36.812c-.488.529-.367 1.261-.367 2.16v3.391c0 .278-.404.509-.484.694-.08.186-.473.327-.599.427a1.15 1.15 0 0 1-.434.208 3.745 3.745 0 0 1-.483.058v2.182s.342.02.499.06c.159.04.372.112.499.218.125.106.463.255.542.447.078.191.46.439.46.743v3.311c0 .899-.121 1.29.367 1.818.49.529.784.471 1.617.471H80v-2h-1.377c-.383 0-.487.156-.599-.094-.113-.252-.024-.242-.024-.531v-3.233c0-.437-.24-.796-.371-1.081s-.35-.512-.541-.685c-.191-.171-.328-.297-.54-.376-.212-.079-.548-.125-.548-.139v-.039c0-.014.256-.066.465-.159.214-.093.414-.225.605-.397.192-.171.501-.393.632-.665.132-.27.298-.597.298-.98v-3.312c0-.29-.089-.621.024-.872.112-.251.216-.437.599-.437H80v-2h-3.016c-.833 0-1.127.283-1.617.812zM89.083 43.484c-.126-.1-.519-.241-.599-.427-.08-.185-.484-.416-.484-.694v-3.391c0-.899.121-1.631-.367-2.161-.49-.528-.784-.811-1.617-.811H83v2h1.377c.383 0 .487.186.599.437.113.251.024.582.024.872v3.312c0 .384.166.71.298.981.131.271.439.493.632.665.191.172.392.304.605.397.209.092.465.145.465.158v.039c0 .014-.336.06-.548.139-.212.08-.349.205-.54.377s-.41.4-.541.685-.371.643-.371 1.081v3.232c0 .289.089.279-.024.531-.112.25-.216.094-.599.094H83v2h3.016c.833 0 1.127.058 1.617-.471.488-.528.367-.919.367-1.818V47.4c0-.305.382-.553.46-.744.079-.191.417-.34.542-.446.127-.106.34-.179.499-.218.157-.04.499-.06.499-.06V43.75s-.324-.019-.483-.059a1.133 1.133 0 0 1-.434-.207z"></path></g><!----></svg>